<svg id="Layer_1" data-name="Layer 1" xmlns="http://www.w3.org/2000/svg" viewBox="0 0 100 100">
<defs>
<style>
.cls-1 {
    fill: #e82525;
    stroke: #e82525;
    stroke-miterlimit: 133.33;
    stroke-width: 3px;
}
</style>
</defs>
<path class="cls-1" d="M18.89,87.5a6.36,6.36,0,0,1-4.49-1.86,6.41,6.41,0,0,1,0-9L41,50,14.36,23.39a6.39,6.39,0,0,1,9-9L50,41,76.61,14.36a6.36,6.36,0,0,1,9,0l0,0a6.36,6.36,0,0,1,0,9L59,50,85.64,76.61a6.39,6.39,0,0,1-9,9L50,59,23.39,85.64A6.36,6.36,0,0,1,18.89,87.5Z"/>
</svg>
